<svg viewBox="0 0 100 100" xmlns="http://www.w3.org/2000/svg">
  <defs>
    <linearGradient id="kingGradient" x1="0%" y1="0%" x2="0%" y2="100%">
      <stop offset="0%" style="stop-color:#81B64C;stop-opacity:1" />
      <stop offset="100%" style="stop-color:#5d8436;stop-opacity:1" />
    </linearGradient>
  </defs>
  <!-- Crown cross -->
  <rect x="42" y="15" width="16" height="25" fill="url(#kingGradient)" rx="2"/>
  <rect x="32" y="28" width="36" height="12" fill="url(#kingGradient)" rx="2"/>
  <!-- Crown points -->
  <polygon points="25,32 30,18 35,32" fill="url(#kingGradient)"/>
  <polygon points="65,32 70,18 75,32" fill="url(#kingGradient)"/>
  <!-- Head/body -->
  <circle cx="50" cy="55" r="22" fill="url(#kingGradient)"/>
  <!-- Base/stand -->
  <rect x="35" y="72" width="30" height="12" fill="url(#kingGradient)" rx="2"/>
  <rect x="30" y="84" width="40" height="6" fill="url(#kingGradient)" rx="1"/>
  <!-- Highlight -->
  <ellipse cx="45" cy="50" rx="8" ry="10" fill="#a8d561" opacity="0.4"/>
</svg>
    <circle cx="32" cy="24" r="6" />
    <!-- Neck -->
    <rect x="28" y="30" width="8" height="6" rx="1"/>
    <!-- Body -->
    <path d="M18 40c0-6 6-10 14-10s14 4 14 10v6H18v-6z"/>
    <!-- Base -->
    <rect x="14" y="48" width="36" height="6" rx="1"/>
    <rect x="10" y="56" width="44" height="4" rx="1"/>
  </g>
</svg>